<svg xmlns="http://www.w3.org/2000/svg" width="256" height="256"><path fill-opacity=".016" d="M0 128.004v128.004l128.25-.254 128.25-.254.254-127.75L257.008 0H0v128.004m.485.496c0 70.4.119 99.053.265 63.672.146-35.38.146-92.98 0-128C.604 29.153.485 58.1.485 128.5" fill="#1976D2" fill-rule="evenodd"/><path fill-opacity=".267" d="M55.561 11.902c-.307.495-3.963 10.887-8.126 23.091-4.162 12.205-7.824 22.857-8.137 23.672-.446 1.163.16 1.412 2.817 1.158 3.242-.309 3.496-.64 6.002-7.823l2.617-7.5H67.5l2.61 7.5c2.442 7.016 2.813 7.52 5.75 7.813 1.727.173 3.14-.129 3.14-.67 0-1.657-15.235-45.559-16.273-46.893-1.118-1.438-6.336-1.692-7.166-.348m32.98.348c-.218.688-.89 9.35-1.493 19.25-.604 9.9-1.363 20.362-1.688 23.25L84.77 60h2.977c2.85 0 3.003-.226 3.574-5.25.328-2.888.908-12.143 1.289-20.568l.693-15.318 6.543 20.068C106.205 58.435 106.465 59 109.083 59c2.578 0 2.946-.711 8.675-16.75 3.29-9.212 6.421-18.1 6.959-19.75.871-2.674 1.045-2.186 1.603 4.5.344 4.125.918 13.237 1.273 20.25l.648 12.75h2.879c3.44 0 3.347 1.245 1.84-24.5-1.498-25.582-1.285-24.68-5.732-24.307-3.6.302-3.713.445-6.972 8.807-1.822 4.675-4.933 13.326-6.915 19.225l-3.602 10.725-6.258-18.389c-3.441-10.114-6.559-18.878-6.928-19.475-.929-1.504-7.526-1.369-8.012.164m57.709-.601l-2.25.49V60h6V41.278l5.875-.533c11.495-1.042 17.114-5.948 17.121-14.948.008-9.936-4.761-13.998-16.896-14.392-4.18-.136-8.612-.026-9.85.244m41.571 2.312C184.84 21.774 173 57.449 173 58.617c0 .848 1.083 1.383 2.797 1.383 2.605 0 2.969-.53 5.311-7.75l2.515-7.75H200.5l2.61 7.5c2.442 7.016 2.813 7.52 5.75 7.813 1.727.173 3.14-.119 3.14-.648 0-.88-13.846-42.327-15.513-46.439-1.17-2.886-7.434-1.994-8.666 1.235m-37.348 3.25c-.308.801-.427 5.244-.266 9.873l.293 8.416 4.712-.06c2.591-.034 5.804-.646 7.139-1.36 4.949-2.649 6.146-10.228 2.318-14.678-1.888-2.195-3.403-2.798-7.984-3.178-4.344-.36-5.783-.132-6.212.987M58.733 19c-.317.825-1.802 5.325-3.301 10s-2.932 9.063-3.186 9.75c-.341.926 1.383 1.25 6.647 1.25 3.909 0 7.107-.378 7.107-.84 0-.462-1.303-4.624-2.896-9.25-1.592-4.625-3.098-9.31-3.345-10.41-.349-1.553-.578-1.665-1.026-.5m132.913 0c-.269.825-1.715 5.325-3.214 10-1.499 4.675-2.932 9.063-3.186 9.75-.341.926 1.383 1.25 6.647 1.25 3.909 0 7.102-.337 7.096-.75-.035-2.441-6.941-21.484-7.343-20.25M21.759 93.409c-5.428 1.957-8.592 4.27-10.803 7.895-1.831 3.003-1.949 5.26-1.952 37.298-.004 33.883.011 34.124 2.285 37.5 1.258 1.869 4.296 4.523 6.75 5.898 4.177 2.341 5.527 2.521 21.211 2.834l16.75.335v2.514c0 1.524-1.224 3.658-3.106 5.416L49.788 196h27.329c25.705 0 27.181-.098 24.856-1.646-3.505-2.334-4.973-4.393-4.973-6.978 0-2.22.159-2.244 16.75-2.559 9.213-.174 16.9-.242 17.084-.15.467.234-3.353 8.278-5.481 11.543-.972 1.49-1.419 3.058-.993 3.484.426.425 4.119.943 8.207 1.149l7.433.376v15.011l-5.297-.661c-5.741-.718-8.703-.073-8.703 1.894 0 1.36 13.276 2.801 16.951 1.84 2.052-.537 2.931-3.303 1.049-3.303-.578 0-1-3.187-1-7.56v-7.561l3.75.311c3.744.309 3.75.318 3.681 4.81-.038 2.475-.444 6.483-.903 8.906l-.833 4.406 7.619-.576c8.143-.616 10.104-1.25 9.067-2.929-.42-.679-2.964-.819-7.139-.391-5.969.612-6.431.522-5.782-1.126.388-.984.951-4.105 1.251-6.935l.547-5.144 7.621-.709c4.192-.389 7.91-.884 8.264-1.098.354-.215-2.263-6.018-5.814-12.897-3.552-6.879-6.092-12.505-5.644-12.502 1.563.01 10.659 7.524 13.725 11.338 2.189 2.723 3.09 4.91 3.09 7.5 0 3.03.385 3.712 2.248 3.976 1.628.231 2.506-.358 3.181-2.132.812-2.136 3.539-4.607 7.807-7.073.755-.437.463 1.088-.75 3.918-1.092 2.549-1.986 5.283-1.986 6.076 0 1.633 3.923 3.392 7.565 3.392 1.901 0 2.435.524 2.435 2.389 0 1.314-.861 3.452-1.913 4.75-1.719 2.122-2.225 2.243-4.995 1.199-3.677-1.385-5.434.207-2.554 2.314 4.277 3.127 9.859.109 11.866-6.414 1.449-4.714 1.457-4.72 1.532-1.238.041 1.925.536 5.159 1.099 7.186 1.203 4.332 6.673 9.506 8.314 7.865.749-.749.107-1.87-2.18-3.807-2.64-2.234-3.351-3.699-3.832-7.887-.588-5.12-.576-5.146 2.547-5.831 6.266-1.377 6.921-5.149 2.412-13.908-1.468-2.852-1.457-2.875 1.081-2.238 1.41.354 4.42.226 6.688-.283 3.933-.884 4.096-.827 3.533 1.238-2.112 7.741-3.669 18.129-3.406 22.729.258 4.511.694 5.579 2.683 6.566 2.678 1.33 8.123.005 8.128-1.978.001-.634.499-5.202 1.106-10.152 1.904-15.54 6.754-29.519 13.879-40 1.631-2.4 2.989-6.082 3.394-9.205.371-2.863 1.337-7.082 2.146-9.376.81-2.294 1.472-4.791 1.472-5.55 0-.758-3.852 2.517-8.56 7.278-8.417 8.512-11.445 13.122-15.492 23.583-4.909 12.69-4.993 12.77-13.262 12.77h-5.15l3.729-2.534c11.097-7.54 10.064-23.691-2.221-34.736-2.893-2.602-5.654-4.73-6.135-4.73-.482 0-1.972-2.164-3.312-4.808-3.126-6.169-7.826-11.192-10.473-11.192-2.476 0-5.124 4.57-5.124 8.843 0 3.486-1.368 4.186-6.77 3.461-2.963-.397-4.3-1.163-5.101-2.919-2.938-6.45-15.834-16.974-19.851-16.2-3.455.665-1.701 3.251 4.722 6.962 3.575 2.065 7.552 5.015 8.837 6.554 10.911 13.066 6.756 31.952-8.115 36.891-7.032 2.336-21.658 1.59-27.414-1.398-5.363-2.783-9.275-7.938-10.962-14.442-1.258-4.85-1.212-5.265.825-7.434 1.187-1.264 4.637-3.225 7.665-4.358 4.571-1.71 5.985-1.862 8.318-.896 3.441 1.425 5.846.639 5.846-1.91 0-3.787-2.356-4.413-8.729-2.321-3.244 1.065-7.822 2.918-10.173 4.117l-4.274 2.181.704-2.316c1.846-6.068 10.36-13.327 12.787-10.9 1.495 1.495 2.685 1.359 2.685-.308 0-1.279 2.02-2.607 3.965-2.607.441 0 1.037.9 1.325 2 .287 1.1 1.067 2 1.733 2 .717 0 .998-.813.688-1.998-.49-1.873-.178-1.957 5.018-1.346 4.473.526 5.451.384 5.079-.733-.254-.761-2.075-1.766-4.046-2.232l-3.584-.848-.339-10.171c-.4-12.005-1.966-15.079-9.596-18.836L129.5 92.5l-52-.22c-41.545-.175-52.752.052-55.741 1.129m.741 8.14c-5.461 2.798-5.5 2.998-5.5 28.161v23.328l2.25-.526c1.238-.29 5.85-1.417 10.25-2.504 4.4-1.088 9.201-1.984 10.668-1.993 4.953-.028 5.941-.915 5.232-4.694-.914-4.877 1.389-14.597 4.695-19.809 9.31-14.681 30.472-16.432 43.679-3.615 2.091 2.029 4.584 5.337 5.539 7.351 1.96 4.129 4.075 14.314 3.251 15.649-.683 1.105 2.835 2.072 7.606 2.089 3.511.013 3.74-.198 5.304-4.909 1.097-3.3 3.101-6.274 6.081-9.021C124 128.803 126 126.793 126 126.59c0-.204-2.025-1.322-4.5-2.485-2.475-1.163-4.5-2.577-4.5-3.142 0-2.391 3.411-2.006 8.109.914 8.516 5.294 13.16 3.53 8.891-3.377-2.312-3.741-2.033-7.11.508-6.135 1.137.436 1.492-.213 1.492-2.722 0-3.657-2.707-6.83-7.315-8.576-1.859-.705-19.865-1.065-53-1.061-43.17.005-50.604.221-53.185 1.543m44.558 19.631c-5.362.943-10.699 5.042-13.438 10.321-2.142 4.127-3.692 17.346-1.7 14.499.71-1.015 1.054-1.096 1.065-.25.008.688.69 1.25 1.515 1.25 1.775 0 1.791-.105.507-3.483-.67-1.762-.643-4.144.083-7.315a430.67 430.67 0 001.436-6.456c.579-2.818 1.382-3.659 5.502-5.76 4.746-2.422 13.485-2.634 18.7-.455 4.822 2.015 10.457 6.36 9.744 7.514-.31.502-.142 1.71.374 2.684.516.974 1.166 3.488 1.445 5.587.279 2.098.777 4.086 1.108 4.416 1.019 1.02.664-4.253-.515-7.634-.613-1.76-.871-3.444-.573-3.742.703-.703 3.813 5.28 4.754 9.144.598 2.457.749 2.583.833.7.233-5.25-6.065-13.885-12.804-17.552-6.078-3.308-12.225-4.491-18.036-3.468m-3.378 11.391c-2.081 1.414-4.21 3.694-4.732 5.065-1.428 3.757-1.186 8.364.441 8.364.764 0 1.368-.562 1.342-1.25-.271-7.315 3.817-12.737 9.625-12.765 2.398-.012 2.788-.246 1.644-.985-2.381-1.539-4.267-1.182-8.32 1.571m1.761 2.897c-2.269 1.716-1.232 2.043 1.355.428 2.873-1.795 8.7 1.215 10.989 5.676 1.182 2.304 2.183 3.288 2.623 2.578.39-.633.343-1.15-.105-1.15s-1.433-1.398-2.189-3.106c-.834-1.883-2.689-3.654-4.712-4.5-4.22-1.763-5.548-1.75-7.961.074m15.889 2.505c.919 1.359 1.67 3.272 1.67 4.25 0 1.121.752 1.777 2.035 1.777 1.631 0 1.848-.348 1.092-1.75-.519-.963-2.186-2.875-3.705-4.25l-2.761-2.5 1.669 2.473M52.195 139.5c.02 1.65.244 2.204.498 1.231.254-.973.237-2.323-.037-3-.274-.677-.481.119-.461 1.769m16.062 1.46c-1.927 3.085-.685 4.688 3.272 4.226 4.007-.467 4.513-2.343 1.248-4.629-2.825-1.98-3.044-1.96-4.52.403M155 145.823c0 3.315 2.236 4.802 4.009 2.666 1.728-2.081.773-4.946-1.769-5.309-1.888-.269-2.24.147-2.24 2.643m-25.535.289c-.428 1.348-.091 2.69.932 3.714 1.471 1.47 1.735 1.47 3.206 0 2.027-2.027.982-5.826-1.603-5.826-1.026 0-2.167.95-2.535 2.112m69.497.051c-1.402 1.903-1.973 1.997-6.405 1.051-5.622-1.199-6.616-.783-12.888 5.387-2.293 2.255-4.841 4.316-5.662 4.58-2.523.813-1.829 11.746 1.108 17.454 3.415 6.635 8.767 9.365 18.363 9.365 17.974 0 27.182-12.985 19.662-27.727-1.883-3.69-10.247-12.314-11.868-12.236-.424.021-1.464.978-2.31 2.126m41.145 4.454c-2.966 2.961-4.905 5.383-4.309 5.383.596 0 1.362-.45 1.702-1 1.139-1.842 2.5-1.025 2.5 1.5 0 1.556.567 2.5 1.5 2.5.825 0 1.5-.802 1.5-1.782s.609-4.13 1.354-7c.744-2.87 1.306-5.165 1.25-5.101-.057.065-2.531 2.54-5.497 5.5m-80.44 2.05c-1.615 1.615-.498 3.333 2.166 3.333 3.483 0 4.502-.892 3.036-2.658-1.178-1.419-4.082-1.796-5.202-.675m-31.917 1.114c-3.46.443-3.538 1.969-.166 3.251 2.871 1.092 4.416.556 4.416-1.532 0-1.792-.886-2.15-4.25-1.719m103.882 6.865c-.945 1.981-1.534 3.785-1.309 4.01.224.224.962-.929 1.639-2.564 1.034-2.498 1.697-2.914 4.15-2.603 1.665.211 2.667-.037 2.334-.576-.321-.52-1.023-.675-1.559-.343-.536.331-1.551.124-2.256-.462-.975-.808-1.693-.2-2.999 2.538M199 162c-2.041 2.041-2.705 5-1.122 5 .483 0 1.543-1.002 2.356-2.226 1.332-2.006 1.753-2.101 4.251-.963 3.648 1.662 4.64.524 1.654-1.897-3.001-2.434-4.639-2.414-7.139.086m41.278.25c-1.499 1.938-2.442 3.75-1.952 3.75.244 0 1.181-1.125 2.082-2.5 1.686-2.573 1.592-3.476-.13-1.25M17 163.876c0 1.622.383 1.706 3.441.749 1.892-.593 3.354-1.136 3.25-1.207-.105-.072-1.653-.409-3.441-.749-2.706-.515-3.25-.313-3.25 1.207m149.592 3.028c-1.555 1.623-4.146 3.497-5.759 4.165l-2.932 1.215 4.299 2.427c5.524 3.117 10.14 7.587 13.92 13.476l3.008 4.688 4.248-3.188 4.248-3.187-3.217-1.165c-7.709-2.791-10.886-6.494-13.397-15.609l-1.59-5.773-2.828 2.951m13.224-.4c-1.541 3.383-.303 4.319 1.981 1.498 1.804-2.228 1.911-2.239 4.556-.506 3.312 2.17 4.635 1.254 2.153-1.49-2.637-2.913-7.256-2.648-8.69.498M116 165.861c0 .474 1.125.647 2.5.384s2.5-.651 2.5-.862c0-.21-1.125-.383-2.5-.383s-2.5.388-2.5.861M236 169c-.589 1.1-.845 2-.57 2s.981-.9 1.57-2c.589-1.1.845-2 .57-2s-.981.9-1.57 2m-89 0c0 .55.45 1 1 1s1-.45 1-1-.45-1-1-1-1 .45-1 1m80.624.539c-.965 2.514-.681 3.163.498 1.136.584-1.004.851-2.036.593-2.293-.257-.258-.749.263-1.091 1.157M17 170c0 .55.477 1 1.059 1s.781-.45.441-1-.816-1-1.059-1-.441.45-.441 1m190.667-.333c-1.36 1.359-.595 2.333 1.833 2.333 1.556 0 2.5-.567 2.5-1.5 0-1.5-3.075-2.091-4.333-.833M126 170.927c0 .509-.787 1.132-1.75 1.384-.963.251.136.509 2.441.573 4.623.128 6.569-1.313 3.048-2.257-3.085-.826-3.739-.774-3.739.3m-76.5 2.158c-8.8.333-17.125.982-18.5 1.442-1.375.46-3.85.762-5.5.672-2.549-.14-2.699-.027-1 .748 1.121.511 23.755.906 51.5.897 28.513-.009 48.307-.374 46.686-.861-1.548-.464-3.356-1.294-4.019-1.845-1.471-1.22-46.631-1.908-69.167-1.053m130.75.577c-1.96.791-1.463 2.338.75 2.338 1.111 0 2-.667 2-1.5 0-1.541-.574-1.716-2.75-.838m19.309.87c-2.28 1.724-7.837 1.925-10.71.387-2.611-1.397-3.682-.323-1.677 1.682 2.497 2.497 8.809 2.802 12.775.617 3.611-1.989 5.163-4.241 2.886-4.186-.733.017-2.207.692-3.274 1.5m33.065 1.007c-.965 2.514-.681 3.163.498 1.136.584-1.004.851-2.036.593-2.293-.257-.258-.749.263-1.091 1.157m-8 2c-.965 2.514-.681 3.163.498 1.136.584-1.004.851-2.036.593-2.293-.257-.258-.749.263-1.091 1.157m6 3c-.965 2.514-.681 3.163.498 1.136.584-1.004.851-2.036.593-2.293-.257-.258-.749.263-1.091 1.157m-2.545 8.044c.048 1.165.285 1.402.604.605.289-.722.253-1.585-.079-1.917-.332-.332-.568.258-.525 1.312m-7 1c.048 1.165.285 1.402.604.605.289-.722.253-1.585-.079-1.917-.332-.332-.568.258-.525 1.312m6 3c.048 1.165.285 1.402.604.605.289-.722.253-1.585-.079-1.917-.332-.332-.568.258-.525 1.312m-7 1c.048 1.165.285 1.402.604.605.289-.722.253-1.585-.079-1.917-.332-.332-.568.258-.525 1.312m6.079 3.417c0 1.375.227 1.938.504 1.25.278-.687.278-1.812 0-2.5-.277-.687-.504-.125-.504 1.25m-7 2c0 1.375.227 1.938.504 1.25.278-.687.278-1.812 0-2.5-.277-.687-.504-.125-.504 1.25m6.037 3.5c.02 1.65.244 2.204.498 1.231.254-.973.237-2.323-.037-3-.274-.677-.481.119-.461 1.769m-6.923 4.5c0 2.475.195 3.488.434 2.25.238-1.238.238-3.262 0-4.5-.239-1.238-.434-.225-.434 2.25m5.679 3.724c-.274 2.323-.118 3.843.348 3.377.466-.466.69-2.366.499-4.224-.339-3.294-.36-3.273-.847.847m-5.218 3.4c.679.684 1.486.991 1.793.683.308-.308-.247-.867-1.233-1.243-1.425-.542-1.54-.428-.56.56m-205.39 11.258c-2.443 2.101-2.773 3.088-2.806 8.392-.028 4.524.43 6.528 1.85 8.099C16.2 246.091 25 245.433 25 240.93c0-1.668-.322-1.828-1.934-.965-4.563 2.442-8.066-.097-8.066-5.845 0-5.539 1.88-7.563 6.35-6.838 3.086.501 3.65.31 3.65-1.238 0-3.752-7.565-4.182-11.657-.662m15.367-1.759c-.39.391-.71 5.135-.71 10.544V244h6.5c5.111 0 6.5-.321 6.5-1.5 0-1.083-1.111-1.5-4-1.5-3.759 0-4-.177-4-2.937 0-2.582.392-2.974 3.25-3.25 1.788-.172 3.25-.763 3.25-1.313 0-.55-1.462-1.141-3.25-1.313-2.667-.258-3.25-.74-3.25-2.69 0-2.024.556-2.422 3.75-2.687 2.529-.209 3.75-.799 3.75-1.81 0-1.117-1.413-1.575-5.54-1.794-3.047-.161-5.859.026-6.25.417M44 233.371c0 10.603.483 12.148 3.443 11.012 1.378-.528 1.581-2.158 1.341-10.753-.27-9.644-.392-10.145-2.534-10.45-2.211-.314-2.25-.136-2.25 10.191m9.429-9.046c-.28.729-.378 5.566-.219 10.75.233 7.582.583 9.425 1.79 9.425.948 0 1.684-1.274 2-3.462.426-2.95.979-3.559 3.744-4.122 4.744-.966 6.256-2.654 6.256-6.982 0-2.814-.585-4.231-2.223-5.377-2.752-1.928-10.636-2.089-11.348-.232M83 232.8c0 6.289.43 10.23 1.2 11 1.398 1.398 10.416 1.63 11.244.29 1.231-1.991-.721-4.09-3.801-4.088l-3.143.002.342-6.067c.476-8.44-.291-10.937-3.361-10.937-2.473 0-2.481.033-2.481 9.8m37.667-9.133c-.367.366-.667 4.811-.667 9.877 0 6.933.368 9.516 1.487 10.445 2.448 2.032 4.513.449 4.513-3.458 0-3.182.272-3.533 2.75-3.546 3.348-.019 4.579-.781 6.184-3.826 1.478-2.804-.104-7.645-3.005-9.197-2.04-1.092-10.251-1.307-11.262-.295M153.5 225c-.34.55-.34 1.45 0 2s-.084 1-.941 1c-1.651 0-2.159 2.511-.692 3.418.477.295 1.099 2.59 1.382 5.1.592 5.251 3.032 8.482 6.406 8.482 2.862 0 3.347-3.925.574-4.65-1.401-.367-1.693-1.28-1.398-4.373.205-2.15.863-3.812 1.461-3.693 2.269.45 1.854-3.294-.468-4.225-1.278-.513-1.931-.961-1.452-.996 1.376-.1-1.464-3.063-2.935-3.063-.726 0-1.597.45-1.937 1M57 229.875c0 3.631 1.254 4.595 4.04 3.104 3.072-1.644 2.238-5.389-1.29-5.795-2.461-.284-2.75 0-2.75 2.691m68.78.173c-.386 2.63-.162 3.007 1.636 2.75 2.913-.416 3.622-5.798.764-5.798-1.412 0-2.077.844-2.4 3.048m-27.676-1.134c-.789.5-1.12 1.601-.763 2.533.495 1.289 1.399 1.505 4.146.989 2.088-.391 3.513-.259 3.513.328 0 .542-1.42 1.27-3.155 1.617-4.152.83-5.845 2.342-5.845 5.218 0 3.268 3.591 5.276 9.25 5.172l4.75-.088v-6.341c0-5.009-.421-6.763-2-8.342-2.09-2.09-7.391-2.672-9.896-1.086m40 0c-.789.5-1.12 1.601-.763 2.533.495 1.289 1.399 1.505 4.146.989 2.088-.391 3.513-.259 3.513.328 0 .542-1.42 1.27-3.155 1.617-5.966 1.193-7.626 4.838-3.9 8.564 1.454 1.454 3.219 1.915 7 1.829l5.055-.115v-6.107c0-7.872-1.735-10.558-6.807-10.537-2.031.009-4.321.413-5.089.899m27 0c-.789.5-1.12 1.601-.763 2.533.495 1.289 1.399 1.505 4.146.989 2.088-.391 3.513-.259 3.513.328 0 .542-1.42 1.27-3.155 1.617-4.152.83-5.845 2.342-5.845 5.218 0 3.268 3.591 5.276 9.25 5.172l4.75-.088v-6.341c0-5.009-.421-6.763-2-8.342-2.09-2.09-7.391-2.672-9.896-1.086m15.969 1.721c-4.624 5.877-.575 14.365 6.852 14.365 2.331 0 4.468-2.533 3.739-4.433-.407-1.062-1.524-1.302-4.112-.882-3.166.514-3.552.338-3.552-1.62 0-4.227 1.853-6.256 5.07-5.55 3.262.717 3.817-.485 1.359-2.944-2.479-2.478-6.972-1.967-9.356 1.064M195 230c-3.123 3.123-2.773 10.247.635 12.927 3.566 2.806 7.874 2.655 10.91-.382 2.788-2.788 3.125-6.348.992-10.473-2.365-4.573-8.948-5.661-12.537-2.072m16 6.099c0 6.087.329 7.813 1.582 8.294 3.013 1.156 3.418.581 3.418-4.858 0-4.419.378-5.667 1.975-6.522 2.219-1.187 2.764.065 3.258 7.487.217 3.244.645 4 2.267 4 1.725 0 2.04-.765 2.294-5.559.233-4.394-.137-6.107-1.762-8.173-1.8-2.289-2.738-2.598-7.544-2.485l-5.488.128v7.688m18.036-6.643c-1.887 2.274-.274 3.679 3.427 2.985 5.044-.946 5.025 1.014-.022 2.364-3.996 1.068-4.441 1.486-4.441 4.168 0 3.97 3.172 5.962 9 5.649l4.5-.241.294-5.499c.391-7.31-2.151-10.882-7.744-10.882-2.112 0-4.343.648-5.014 1.456M199.2 233.2c-1.407 1.407-1.608 6.43-.29 7.244 2.729 1.687 5.801-2.627 4.59-6.444-.715-2.254-2.512-2.588-4.3-.8m-97.741 5.867c-.363.586-.409 1.317-.102 1.623.822.823 3.643-.461 3.643-1.659 0-1.357-2.697-1.33-3.541.036m40 0c-.363.586-.409 1.317-.102 1.623.822.823 3.643-.461 3.643-1.659 0-1.357-2.697-1.33-3.541.036m27 0c-.363.586-.409 1.317-.102 1.623.822.823 3.643-.461 3.643-1.659 0-1.357-2.697-1.33-3.541.036M233 239.5c-1.012 1.22-.965 1.5.255 1.5.825 0 2.06-.675 2.745-1.5 1.012-1.22.965-1.5-.255-1.5-.825 0-2.06.675-2.745 1.5" fill="#1976D2" fill-rule="evenodd"/><path fill-opacity=".396" d="M133 113.977c0 1.258.932 3.794 2.07 5.637 2.363 3.822 2.038 4.941-1.638 5.644-1.8.344-4.306-.532-8.158-2.852-5.244-3.157-7.274-3.53-7.274-1.334 0 .525 2.025 1.938 4.5 3.14 2.475 1.203 4.5 2.475 4.5 2.827 0 .352-1.11 1.146-2.467 1.764-3.277 1.493-8.329 8.592-9.122 12.819l-.635 3.386-16.638-.105c-9.151-.057-22.263.381-29.138.973-6.875.593-16.1 1.334-20.5 1.647-4.4.314-10.475 1.167-13.5 1.897-3.025.729-8.08 1.864-11.233 2.521-6.02 1.255-8.503 2.978-4.576 3.175 1.777.089 1.894.224.506.584-1.431.371-1.561.759-.628 1.884.952 1.146.771 1.416-.947 1.416-1.167 0-2.122.624-2.122 1.386 0 2.286 7.72 2.795 17.222 1.136 12.375-2.16 31.934-3.626 56.373-4.224l21.094-.516.089 3.124c.125 4.398 4.09 11.09 8.222 13.878 2.877 1.942 4.525 2.305 9.252 2.039 3.163-.178 5.746-.098 5.739.177-.058 2.283-3.641 11.516-6.458 16.641-2.285 4.158-3.084 6.518-2.358 6.967.604.373 4.186.9 7.961 1.17l6.864.491v7.865c0 4.326-.251 7.866-.557 7.866-.307 0-2.509-.491-4.894-1.092-3.177-.8-4.9-.79-6.443.035-3.763 2.014-2.26 2.677 6.495 2.866 9.297.2 11.116-.24 9.425-2.277-.588-.71-1.173-4.382-1.298-8.161l-.228-6.871 4.25-.307 4.25-.308v4.814c0 2.648-.446 6.368-.99 8.267-.545 1.899-.624 3.82-.177 4.267.448.448 4.043.514 7.99.147 5.261-.489 7.177-1.051 7.177-2.103 0-1.175-1.206-1.307-6.641-.725l-6.642.711.747-2.881c.411-1.585.883-4.907 1.049-7.382l.303-4.5 7.341-.299c4.037-.164 7.697-.655 8.132-1.09.436-.436-1.977-6.063-5.361-12.506-3.384-6.443-5.886-11.98-5.561-12.306.326-.325 2.289.534 4.363 1.91 7.403 4.913 13.597 12.695 13.209 16.595-.354 3.55.093 4.33 2.301 4.016 1.288-.184 2.401-1.165 2.619-2.31.37-1.936 1.612-3.104 7.23-6.797l2.718-1.787-2.341 5.76c-2.712 6.671-2.236 7.839 3.592 8.824 3.441.581 3.94 1.004 3.927 3.328-.019 3.187-.803 4.504-3.539 5.943-1.28.673-2.599.735-3.5.165-2.046-1.295-2.946-1.161-2.946.437 0 .761.948 1.632 2.107 1.935 4.723 1.235 9.893-3.228 9.893-8.541 0-4.763 1.708-3.038 2.437 2.462.988 7.449 4.587 12.761 8.645 12.761 1.831 0 .853-1.607-2.005-3.295-2.85-1.684-3.2-2.509-4.654-10.955-.642-3.727-.624-3.75 2.766-3.75 6.11 0 7.237-3.259 3.771-10.899-1.097-2.419-1.875-4.497-1.728-4.618.148-.12 3.224-.445 6.838-.721l6.57-.503-1.332 5.121c-.732 2.816-1.856 9.047-2.497 13.846-1.07 8.014-1.015 8.891.667 10.75 2.043 2.257 6.742 2.697 8.271.774.547-.687 1.3-4.469 1.674-8.403 1.472-15.504 6.492-30.973 13.586-41.86 2.461-3.778 3.991-7.305 3.991-9.201 0-1.692.932-6.091 2.07-9.777 1.139-3.686 1.905-6.868 1.702-7.07-.202-.202-2.121 1.845-4.264 4.55-2.142 2.706-5.581 6.177-7.642 7.715-3.503 2.614-9.229 12.753-12.875 22.796-2.771 7.632-3.47 8.547-7.325 9.588-2.108.569-5.114.753-6.68.409l-2.846-.625 4.841-4.686c3.941-3.814 4.967-5.536 5.517-9.257 1.329-8.991-4.152-19.972-12.693-25.429-3.017-1.928-5.09-4.131-5.8-6.166-1.323-3.792-8.618-12.334-10.533-12.334-1.973 0-4.43 3.935-5.114 8.188-.691 4.29-2.044 5.046-7.474 4.177-2.589-.414-4.34-1.364-5.065-2.749-3.603-6.879-12.418-14.724-18.165-16.167-2.239-.562-2.654-.338-2.654 1.428 0 1.552 1.524 2.864 5.884 5.065 11.434 5.771 17.575 16.959 15.182 27.656-2.277 10.173-8.095 15.366-19.599 17.493-6.282 1.161-17.739-.136-22.313-2.526-5.501-2.874-10.364-9.838-11.647-16.677-.594-3.166-.302-3.861 2.748-6.539 4.578-4.02 11.944-6.116 15.259-4.342 1.959 1.049 2.709 1.053 3.952.021 1.995-1.656 1.952-3.695-.103-4.845-1.818-1.017-14.919 3.17-19.681 6.29l-2.733 1.79 1.058-2.782c2.799-7.362 9.079-13.43 12.529-12.106 2.287.878 2.964.735 2.964-.625 0-.687 1.159-1.385 2.575-1.55 1.874-.217 2.877.327 3.682 2l1.108 2.3.067-2.379c.065-2.266.302-2.348 4.994-1.725 2.709.359 5.181.239 5.494-.267.709-1.146-.896-1.778-6.75-2.656-4.279-.642-4.698-.978-6.245-5.031-.913-2.389-2.507-5.111-3.542-6.048-1.792-1.621-1.883-1.593-1.883.583m22.39 30.449c-.91 2.371.377 4.765 2.357 4.384 2.378-.458 2.378-5.162 0-5.62-.964-.186-2.025.37-2.357 1.236m-24.723.241c-.367.366-.667 1.716-.667 3 0 2.753 3.415 3.301 4.41.706.968-2.521-1.995-5.455-3.743-3.706M199 146.102c-1.353 1.828-1.958 1.924-6.164.978-5.415-1.219-7.224-.52-13.186 5.095-2.118 1.994-4.762 4.402-5.877 5.352-1.736 1.48-1.953 2.553-1.506 7.476.286 3.161 1.307 7.404 2.268 9.429 6.362 13.407 30.325 13.803 39.191.646 5.056-7.502 1.378-20.965-7.596-27.81-4.993-3.808-5.156-3.834-7.13-1.166m41.239 4.042c-2.881 2.749-5.239 5.416-5.239 5.927 0 1.237 1.722 1.188 2.5-.071 1.045-1.691 2.5-1.109 2.5 1 0 1.333.667 2 2 2 1.591 0 2-.667 2-3.257 0-1.791.442-4.798.983-6.683.54-1.885.873-3.537.739-3.671-.134-.134-2.601 2.006-5.483 4.755m-130.989-2.455c.963.252 2.537.252 3.5 0 .963-.251.175-.457-1.75-.457s-2.713.206-1.75.457m50.663 5.365c-1.698 1.049-1.166 1.593 2.438 2.498 2.396.601 2.792.431 2.498-1.074-.389-1.993-2.862-2.706-4.936-1.424m-56.913.341c0 .217 1.8.567 4 .776 2.2.21 4 .032 4-.395 0-.427-1.8-.776-4-.776s-4 .178-4 .395m22.241 1.828c.435 1.304 5.317 2.886 6.196 2.007 1.551-1.551.196-2.92-3.011-3.04-2.327-.088-3.438.273-3.185 1.033m112.424 1.568c-.46.712-1.668 1.025-2.697.699-2.172-.69-3.192 1.009-8.543 14.233-4.148 10.25-8.023 25.428-8.986 35.196-.629 6.383-.521 6.967 1.479 8.037 2.423 1.297 6.079.532 6.088-1.273.02-4.031 3.231-21.295 5.056-27.183 2.1-6.774 8.234-19.643 11.558-24.25 1.537-2.13 1.514-2.25-.428-2.25-1.367 0-2.16-.752-2.374-2.25-.23-1.615-.556-1.886-1.153-.959M114 160.05c0 7.31 5.695 12.95 13.076 12.95 5.493 0 7.337-1.467 2.947-2.345-3.436-.688-10.509-6.76-12.613-10.83-1.91-3.693-3.41-3.594-3.41.225m85.086 2.568c-1.132 1.439-1.774 3.078-1.425 3.642.348.564 1.257-.164 2.018-1.617 1.595-3.044 2.212-3.193 4.88-1.175 2.28 1.725 3.441 1.913 3.441.558 0-.844-5.041-4.026-6.378-4.026-.262 0-1.403 1.178-2.536 2.618m-30.842 2.363c-.653 1.046-3.219 3.092-5.701 4.547l-4.513 2.644 5.946 3.971c5.796 3.87 10.424 8.798 13.015 13.857.704 1.375 1.417 2.66 1.584 2.856.167.196 2.382-1.137 4.922-2.961l4.619-3.317-4.808-2.153c-2.644-1.184-5.799-3.233-7.01-4.553-2.632-2.867-5.292-8.92-5.313-12.09-.025-3.664-1.354-5.022-2.741-2.801m12.313 1.242c-1.772 2.529-1.978 3.777-.624 3.777.513 0 1.218-.9 1.567-2 .661-2.083 3.927-2.736 5-1 .34.55 1.379.99 2.309.978 1.32-.018 1.143-.451-.809-1.978-3.284-2.569-5.535-2.502-7.443.223m28.693 3.495c-1.973.708-1.456 2.282.75 2.282 1.1 0 2-.423 2-.941 0-1.28-1.237-1.883-2.75-1.341m-74.136 10.133c-1.127 3.71-3.396 9.27-5.043 12.355-2.526 4.735-2.752 5.702-1.45 6.202.848.326 9.972.592 20.275.592h18.732l-6.511-12.865-6.511-12.865-8.722-.082-8.721-.082-2.049 6.745m64.962-5.192c-2.692 1.886-9.412 2.137-11.47.429-.919-.763-1.648-.829-2.045-.187-1.994 3.226 10.78 4.264 14.578 1.185 2.96-2.399 2.056-3.611-1.063-1.427M179.5 175c-.34.55.309 1 1.441 1 1.132 0 2.059-.45 2.059-1s-.648-1-1.441-1-1.719.45-2.059 1M84 233v10h5c2.75 0 5-.45 5-1s-1.575-1-3.5-1H87v-9c0-7.333-.278-9-1.5-9-1.233 0-1.5 1.778-1.5 10m37 .5c0 7.778.272 9.5 1.5 9.5 1.037 0 1.5-1.041 1.5-3.372 0-3.157.254-3.413 3.968-4.007 4.21-.673 6.032-2.744 6.032-6.855 0-3.599-1.886-4.766-7.7-4.766H121v9.5m3.558-7.725c-.307.307-.558 2.283-.558 4.392 0 3.119.359 3.833 1.929 3.833 3.54 0 6.105-3.924 4.306-6.588-.867-1.283-4.875-2.439-5.677-1.637M154 226.917c0 1.054-.562 2.179-1.25 2.5-1 .466-1 .7 0 1.166.718.335 1.25 2.428 1.25 4.919 0 5.846.782 7.498 3.548 7.498 3.011 0 4.027-1.616 1.441-2.293-1.621-.424-1.989-1.369-1.989-5.113 0-3.927.29-4.594 2-4.594 1.1 0 2-.45 2-1s-.9-1-2-1c-1.333 0-2-.667-2-2 0-1.111-.667-2-1.5-2-.825 0-1.5.863-1.5 1.917M56.232 230c0 1.925.206 2.713.457 1.75.252-.963.252-2.537 0-3.5-.251-.963-.457-.175-.457 1.75m9.847-.417c.048 1.165.285 1.402.604.605.289-.722.253-1.585-.079-1.917-.332-.332-.568.258-.525 1.312m132.18-.796c-4.673.73-6.789 7.584-3.702 11.99 1.143 1.632 2.564 2.223 5.345 2.223 4.698 0 7.098-2.413 7.098-7.138 0-5.501-3.045-7.965-8.741-7.075m18.365.733c-1.443.749-2.624.938-2.624.421 0-.518-.45-.941-1-.941-.571 0-1 3-1 7 0 8.066 1.746 9.539 2.198 1.853.319-5.432 2.119-7.713 5.166-6.544 1.242.477 1.636 1.961 1.636 6.16 0 4.25.347 5.531 1.5 5.531 1.161 0 1.497-1.299 1.485-5.75-.022-8.065-2.235-10.389-7.361-7.73m15.45-.56c-1.334.327-2.624 1.189-2.866 1.915-.35 1.05-.001 1.084 1.714.167 2.815-1.507 6.078-.419 6.078 2.025 0 1.471-.701 1.933-2.929 1.933-3.014 0-6.071 2.201-6.071 4.371 0 2.014 2.226 3.629 5 3.629 1.43 0 3.14-.54 3.8-1.2.933-.933 1.2-.933 1.2 0 0 .66.45 1.2 1 1.2 1.145 0 1.349-10.938.235-12.588-1.017-1.504-4.265-2.163-7.161-1.452m-134.361.661c-1.635 1.634-.511 2.129 2.368 1.042 2.675-1.009 3.263-.913 4.468.735 1.711 2.34 1.039 3.602-1.917 3.602-5.921 0-7.992 7.173-2.26 7.828 1.579.181 3.379-.207 4-.862.86-.908.627-1.04-.981-.556-2.914.878-5.161-1.777-3.351-3.958 1.778-2.143 5.434-1.454 5.562 1.048.196 3.846.406 4.5 1.444 4.5.653 0 .934-2.532.75-6.75l-.296-6.75-4.537-.296c-2.496-.163-4.858.025-5.25.417m39.752.435c-.515.834.17.963 2.451.462 3.362-.738 6.084.651 6.084 3.104 0 .844-1.09 1.378-2.809 1.378-3.946 0-6.453 2.1-6.036 5.056.258 1.831 1.05 2.525 3.155 2.766 1.546.177 3.459-.215 4.25-.872 1.022-.848 1.44-.869 1.44-.072 0 .617.471 1.122 1.046 1.122.653 0 .934-2.532.75-6.75l-.296-6.75-4.659-.301c-2.763-.179-4.951.17-5.376.857m27.248-.435c-1.619 1.618-.523 2.134 2.283 1.074 2.471-.932 3.281-.846 4.619.491 1.989 1.989 1.04 3.814-1.983 3.814-5.921 0-7.992 7.173-2.26 7.828 1.579.181 3.379-.207 4-.862.86-.908.627-1.04-.981-.556-2.914.878-5.161-1.777-3.351-3.958 1.778-2.143 5.434-1.454 5.562 1.048.196 3.846.406 4.5 1.444 4.5.653 0 .934-2.532.75-6.75l-.296-6.75-4.537-.296c-2.496-.163-4.858.025-5.25.417m16.322 1.313c-1.435 2.682-1.295 8.328.259 10.454.902 1.233 2.318 1.67 4.673 1.441 4.383-.427 5.03-2.352.786-2.339-3.071.009-3.271-.212-3.576-3.95-.381-4.675 1.849-7.132 4.961-5.466 1.44.771 1.862.649 1.862-.539 0-2.433-7.631-2.093-8.965.399m16.62.895c-3.305 3.651-1.537 9.171 2.938 9.171 3.785 0 4.98-8.088 1.473-9.965-2.506-1.341-2.474-1.347-4.411.794m-57.105 5.764c-1.481 1.481-1.511 1.874-.238 3.147 1.866 1.866 5.97-.038 5.487-2.546-.446-2.316-3.217-2.633-5.249-.601m91.65-.393c-1.677 1.677-1.495 3.473.427 4.21 2.058.79 4.373-1.08 4.373-3.532 0-2.138-2.927-2.551-4.8-.678m-175.948 3.3c.011 2.2.216 2.982.455 1.738.239-1.244.23-3.044-.02-4s-.446.062-.435 2.262m-32.173 1.083c.048 1.165.285 1.402.604.605.289-.722.253-1.585-.079-1.917-.332-.332-.568.258-.525 1.312" fill="#1976D2" fill-rule="evenodd"/><path fill-opacity=".982" d="M133.005 114.167c.003.733 1.114 3.133 2.469 5.333 1.355 2.2 2.478 4.287 2.495 4.639.017.351-1.522.93-3.42 1.286-2.753.516-4.54.033-8.831-2.389-5.568-3.142-7.718-3.722-7.718-2.083 0 .524 2.025 1.849 4.5 2.944s4.5 2.429 4.5 2.965-1.543 1.929-3.429 3.094c-3.466 2.142-8.571 10.645-8.571 14.276 0 1.011-.78 3.029-1.734 4.484-2.51 3.832-2.358 13.633.292 18.784 2.958 5.749 9.171 8.821 16.155 7.987l5.214-.622-2.453 7.212c-1.349 3.966-3.605 9.178-5.014 11.581-1.408 2.404-2.32 4.76-2.025 5.237.295.477 3.936 1.186 8.091 1.575l7.555.708-.291 7.661-.29 7.661H134c-9.671 0-8.816 1.538 1.166 2.097 7.949.445 12.07-.525 8.328-1.961-1.142-.438-1.494-2.345-1.494-8.105V201h4.481c3.937 0 4.556.301 5.104 2.482.343 1.366.08 4.746-.584 7.512-.663 2.766-.992 5.587-.731 6.268.587 1.532 13.918.78 13.501-.762-.299-1.102-.22-1.101-7.157-.162l-4.886.661.636-4.639c.35-2.552.636-6.151.636-8V201l6.25-.014c11.661-.025 11.46.637 4.195-13.787-3.496-6.941-6.175-12.802-5.954-13.024.222-.222 2.091.639 4.153 1.914 8.797 5.437 14.754 12.822 14.82 18.375.046 3.858 2.518 4.061 4.295.354.707-1.475 2.874-3.664 4.816-4.864 1.941-1.2 3.281-2.431 2.977-2.735-.304-.304-2.326.872-4.494 2.614-2.167 1.742-4.408 3.167-4.979 3.167-.571 0-1.91-1.687-2.976-3.75-2.437-4.715-9.27-11.368-14.986-14.59l-4.383-2.471 3.383-1.705c1.861-.937 5.071-3.321 7.133-5.297l3.75-3.593v3.337c0 8.951 5.804 17.466 13.524 19.84 6.721 2.066 6.936 2.408 4.506 7.17-3.138 6.152-2.49 8.483 2.47 8.876 5.058.4 5.869 1.228 5.014 5.118-.922 4.199-4.947 6.9-7.709 5.175-2.156-1.346-3.414-.905-2.346.823.974 1.577 5.77 1.295 8.315-.488 1.371-.959 2.461-3.064 2.851-5.5.796-4.977 2.101-5.065 2.897-.195.337 2.063.829 4.924 1.094 6.359.535 2.901 5.953 8.655 7.084 7.524.397-.397-.505-1.714-2.004-2.927-2.801-2.267-4.696-7.088-4.696-11.949 0-2.293.432-2.757 2.566-2.757 3.515 0 6.436-1.721 6.424-3.785-.005-.943-1.13-4.122-2.5-7.064-1.369-2.942-2.49-5.475-2.49-5.627 0-.153 1.972-.056 4.381.216 5.736.646 11.241-1.188 11.974-3.989.811-3.102-.122-3.494-1.25-.526-1.005 2.643-3.56 3.739-8.773 3.761-5.764.025-6.684-.945-3.167-3.34 6.666-4.539 9.174-11.002 7.617-19.629-1.134-6.286-6.762-14.335-12.288-17.573-2.993-1.754-5.063-3.87-6.015-6.148-2.381-5.699-7.35-11.296-10.028-11.296-2.677 0-3.878 1.786-4.86 7.223-.848 4.698-2.728 5.783-7.795 4.497-2.899-.736-4.565-1.978-6.266-4.673-4.741-7.509-17.352-16.761-19.067-13.987-.941 1.522.382 2.828 5.486 5.414 16.365 8.293 21.084 27.172 9.742 38.976-5.613 5.842-12.933 8.059-23.83 7.219-4.708-.363-7.846-.213-8.046.386-.18.54-2.574 1.225-5.321 1.522-6.373.691-10.382-1.649-13.357-7.795-2.222-4.588-2.874-12.209-1.137-13.282.55-.34 1.056-.141 1.125.441.313 2.652 1.78 5.953 4.19 9.428 2.199 3.169 10.193 8.631 12.631 8.63.855 0-.407-.971-2.804-2.158-6.867-3.399-12.928-13.401-11.989-19.785.443-3.01 4.24-5.819 10.923-8.082 4.868-1.648 5.47-1.662 7.723-.186 2.266 1.484 2.539 1.471 3.754-.191 1.459-1.996.896-4.597-.995-4.597-2.242 0-14.006 4.13-17.434 6.121-1.857 1.078-3.571 1.766-3.809 1.528-.759-.76 2.7-8.036 4.983-10.48 2.971-3.182 7.417-5.439 8.204-4.165.999 1.616 3.504 1.174 2.86-.504-.863-2.249 5.238-2.016 6.558.25.924 1.586 1.022 1.552 1.05-.366.028-1.944.375-2.051 4.28-1.325 2.338.435 4.653.399 5.145-.079.962-.935-1.755-1.766-7.219-2.21-3.009-.244-3.529-.783-5.5-5.695-2.045-5.098-4.682-7.869-4.671-4.908m54.03 17.767c-.569 1.064-1.035 3.369-1.035 5.123 0 2.673.234 2.993 1.452 1.983.799-.663 2.261-1.035 3.25-.826 1.46.308 1.247.675-1.128 1.953-2.729 1.468-2.797 1.641-1 2.563 1.059.543 3.389 1.265 5.176 1.604 2.501.474 3.25.269 3.25-.891 0-3.925-5.763-13.443-8.139-13.443-.435 0-1.256.87-1.826 1.934m-5.851 10.816c.383 3.333 4.816 4.731 4.816 1.52 0-2.196-1.829-4.27-3.766-4.27-.901 0-1.259.937-1.05 2.75m65.406-.849c-.946 1.045-1.307 2.156-.801 2.468.505.313 1.425-.543 2.043-1.9 1.351-2.964 1.05-3.101-1.242-.568m-72.751 5.097c.186 3.301.67 6.002 1.076 6.002 1.394 0 5.085-4.632 5.085-6.382 0-1.298-.519-1.588-2-1.118-2.34.743-2.744-1.001-.437-1.886 2.124-.815.837-2.614-1.872-2.616-2.049-.002-2.169.387-1.852 6m-18.201-2.498c-.768 2.003.265 4.5 1.862 4.5 1.837 0 2.742-3.003 1.395-4.627-1.478-1.781-2.54-1.739-3.257.127m43.86.508c-.348 1.096-1.165 2.042-1.815 2.103-2.522.236-6.262-.357-7.957-1.261-1.262-.673-2.219-.5-3.321.602-.851.851-2.115 1.548-2.807 1.548-.693 0-1.815 1.036-2.493 2.303-.678 1.267-3.004 3.398-5.169 4.736-3.881 2.399-3.936 2.517-3.914 8.447.024 6.683 2.295 12.709 6.11 16.216 9.61 8.835 29.783 6.176 36.254-4.778 5.097-8.628-1.125-25.028-11.571-30.501-2.46-1.289-2.738-1.24-3.317.585m-69.318 2.242c.176 1.238.995 2.25 1.82 2.25.825 0 1.644-1.012 1.82-2.25.245-1.732-.174-2.25-1.82-2.25-1.646 0-2.065.518-1.82 2.25m110.257 2l-2.937 3.25 3.25-2.937c3.029-2.738 3.71-3.563 2.937-3.563-.172 0-1.635 1.463-3.25 3.25m-80.866 4.636c-.301.487.685 1.122 2.191 1.411 3.093.594 3.732.311 2.779-1.23-.797-1.291-4.208-1.415-4.97-.181m74.301.864c-1.243 1.586-1.208 1.621.378.378 1.666-1.307 2.195-2.128 1.372-2.128-.207 0-.995.787-1.75 1.75m-106.988.343c-1.108.702-1.036.909.366 1.042.963.091 2.2.21 2.75.265.55.055 1.113-.307 1.25-.805.341-1.235-2.663-1.581-4.366-.502m116.68 4.614c-.542 1.425-.428 1.54.56.56.684-.679.991-1.486.683-1.793-.308-.308-.867.247-1.243 1.233m-44.529 3.227c-1.684 3.146-1.141 3.76.943 1.066 1.681-2.174 2.199-2.337 3.964-1.25 2.729 1.68 3.574 1.577 2.058-.25-1.754-2.114-5.734-1.866-6.965.434M181 166c-1.1 1.1-1.976 2.563-1.948 3.25.029.688.759.238 1.622-1 1.625-2.329 4.745-2.999 5.826-1.25.34.55 1.154.985 1.809.967 1.342-.038-3.036-3.967-4.42-3.967-.489 0-1.789.9-2.889 2m27.813 4.683c.721.289 1.584.253 1.916-.079.332-.332-.258-.568-1.312-.525-1.165.048-1.402.285-.604.604m-72.362 2.817c-2.359 8.02-5.038 14.998-7.411 19.304-2.38 4.316-2.652 5.408-1.461 5.865 1.836.704 39.047 1.012 39.746.329.282-.277-2.38-6.276-5.915-13.332l-6.428-12.83-9.119-.168c-5.365-.099-9.239.244-9.412.832m63.049 1.614c-2.944 1.931-6.572 2.082-11 .457-1.971-.724-1.972-.712-.059.847 1.068.87 3.453 1.582 5.3 1.582 3.632 0 9.259-2.447 9.259-4.026 0-1.2.134-1.244-3.5 1.14M180 175c0 .55.423 1 .941 1s1.219-.45 1.559-1c.34-.55-.084-1-.941-1s-1.559.45-1.559 1m17.313 10.72c-3.798.353-4.37.779-6.158 4.584-3.427 7.298-3.561 8.569-.962 9.104 6.018 1.239 14.771 1.556 17.223.624 3.07-1.167 2.98-2.219-.852-10.032-2.331-4.751-2.64-4.894-9.251-4.28M227.158 201c0 1.375.227 1.938.504 1.25.278-.687.278-1.812 0-2.5-.277-.687-.504-.125-.504 1.25m-.983 8.05c-.096 2.503-.715 5.09-1.375 5.75-.933.933-.926 1.2.031 1.2 1.774 0 2.35-2.155 1.907-7.136l-.389-4.364-.174 4.55" fill="#1976D2" fill-rule="evenodd"/></svg>